<svg width="30" height="29" viewBox="0 0 30 29" fill="none" xmlns="http://www.w3.org/2000/svg">
    <path
        d="M24.17 24.79C23.86 24.79 23.55 24.67 23.31 24.43L21.61 22.73C21.13 22.25 21.13 21.48 21.61 21.01C22.09 20.53 22.86 20.53 23.33 21.01L25.03 22.71C25.5 23.19 25.5 23.96 25.03 24.43C24.79 24.67 24.48 24.79 24.17 24.79Z"
        fill="#F6921E" />
    <path
        d="M15.02 6.39999C12.97 6.39999 10.91 7.18 9.33999 8.75C6.20999 11.88 6.20999 16.96 9.33999 20.1C10.91 21.67 12.96 22.45 15.02 22.45C17.08 22.45 19.13 21.67 20.69 20.1C23.82 16.97 23.82 11.89 20.69 8.75C19.12 7.18 17.07 6.39999 15.02 6.39999Z"
        fill="#F6921E" />
    <path
        d="M7.56999 8.20003C7.25999 8.20003 6.94999 8.08001 6.70999 7.84001L5.00999 6.14003C4.52999 5.66003 4.52999 4.89003 5.00999 4.42003C5.48999 3.94003 6.25999 3.94003 6.72999 4.42003L8.42999 6.12001C8.89999 6.60001 8.89999 7.37001 8.42999 7.84001C8.18999 8.08001 7.87999 8.20003 7.56999 8.20003Z"
        fill="#F6921E" />
    <path
        d="M5.88 24.79C5.57 24.79 5.26 24.67 5.02 24.43C4.55 23.95 4.55 23.18 5.02 22.71L6.72 21.01C7.2 20.53 7.97 20.53 8.44 21.01C8.91 21.49 8.91 22.26 8.44 22.73L6.74 24.43C6.5 24.67 6.19 24.79 5.88 24.79Z"
        fill="#F6921E" />
    <path
        d="M22.47 8.20003C22.16 8.20003 21.85 8.08001 21.61 7.84001C21.13 7.36001 21.13 6.59001 21.61 6.12001L23.31 4.42003C23.79 3.94003 24.56 3.94003 25.03 4.42003C25.5 4.90003 25.5 5.67003 25.03 6.14003L23.33 7.84001C23.09 8.08001 22.78 8.20003 22.47 8.20003Z"
        fill="#F6921E" />
    <path
        d="M15.02 28.58C14.35 28.58 13.8 28.03 13.8 27.36V24.96C13.8 24.29 14.35 23.74 15.02 23.74C15.69 23.74 16.24 24.29 16.24 24.96V27.36C16.24 28.03 15.69 28.58 15.02 28.58Z"
        fill="#F6921E" />
    <path
        d="M15.02 5.10999C14.35 5.10999 13.8 4.56 13.8 3.89V1.49001C13.8 0.820005 14.35 0.270004 15.02 0.270004C15.69 0.270004 16.24 0.820005 16.24 1.49001V3.89C16.24 4.56 15.69 5.10999 15.02 5.10999Z"
        fill="#F6921E" />
    <path
        d="M4.49 15.65H2.09C1.42 15.65 0.869995 15.11 0.869995 14.43C0.869995 13.75 1.41 13.21 2.09 13.21H4.49C5.16 13.21 5.71 13.76 5.71 14.43C5.71 15.1 5.16 15.65 4.49 15.65Z"
        fill="#F6921E" />
    <path
        d="M27.96 15.65H25.56C24.89 15.65 24.34 15.1 24.34 14.43C24.34 13.76 24.89 13.21 25.56 13.21H27.96C28.63 13.21 29.18 13.76 29.18 14.43C29.18 15.1 28.63 15.65 27.96 15.65Z"
        fill="#F6921E" />
</svg>