<svg width="31" height="17" viewBox="0 0 31 17" fill="none" xmlns="http://www.w3.org/2000/svg">
    <path
        d="M18.79 0.339996C15.51 0.339996 13.27 1.72 11.77 3.37C11.13 3.07 10.4 2.89999 9.63 2.89999C6.99 2.89999 4.85 4.89999 4.85 7.35999C4.85 7.42999 4.85 7.50001 4.85 7.57001C2.46 7.65001 0.0599976 8.91001 0.0599976 12.57C0.0599976 14.92 1.92 16.54 4.78 16.54H25.43C28.5 16.54 30.1 14.53 30.1 12.05C30.1 9.92999 29.02 8.22 26.36 7.69C26.34 3.63 23.49 0.359985 18.78 0.359985L18.79 0.339996Z"
        fill="#D3E1E6" />
</svg>