<svg width="31" height="23" viewBox="0 0 31 23" fill="none" xmlns="http://www.w3.org/2000/svg">
    <path
        d="M19.24 0.309998C15.96 0.309998 13.72 1.69 12.22 3.34C11.57 3.04 10.85 2.87 10.08 2.87C7.44 2.87 5.3 4.86999 5.3 7.32999C5.3 7.39999 5.3 7.47001 5.3 7.54001C2.91 7.62001 0.509995 8.88001 0.509995 12.54C0.509995 14.89 2.37 16.51 5.23 16.51H25.88C28.95 16.51 30.55 14.5 30.55 12.02C30.55 9.89999 29.47 8.19 26.81 7.66C26.79 3.6 23.94 0.329987 19.23 0.329987L19.24 0.309998Z"
        fill="#D3E1E6" />
    <path
        d="M10.37 20.47C10.37 21.41 9.61 22.17 8.66 22.17C7.71 22.17 6.96001 21.41 6.96001 20.47C6.96001 19.53 7.72 18.76 8.66 18.76C9.6 18.76 10.37 19.52 10.37 20.47Z"
        fill="#B4DEE0" />
    <path
        d="M16.82 20.47C16.82 21.41 16.06 22.17 15.12 22.17C14.18 22.17 13.42 21.41 13.42 20.47C13.42 19.53 14.18 18.76 15.12 18.76C16.06 18.76 16.82 19.52 16.82 20.47Z"
        fill="#B4DEE0" />
    <path
        d="M23.27 20.47C23.27 21.41 22.51 22.17 21.57 22.17C20.63 22.17 19.87 21.41 19.87 20.47C19.87 19.53 20.63 18.76 21.57 18.76C22.51 18.76 23.27 19.52 23.27 20.47Z"
        fill="#B4DEE0" />
</svg>
    