<svg width="31" height="27" viewBox="0 0 31 27" fill="none" xmlns="http://www.w3.org/2000/svg">
    <path
        d="M19.08 0.309998C15.8 0.309998 13.56 1.69 12.06 3.34C11.42 3.04 10.69 2.87 9.92 2.87C7.28 2.87 5.14 4.86999 5.14 7.32999C5.14 7.39999 5.14 7.47001 5.14 7.54001C2.75 7.62001 0.350006 8.88001 0.350006 12.54C0.350006 14.89 2.21001 16.51 5.07001 16.51H25.72C28.79 16.51 30.39 14.5 30.39 12.02C30.39 9.89999 29.31 8.19 26.65 7.66C26.63 3.6 23.78 0.329987 19.07 0.329987L19.08 0.309998Z"
        fill="#D3E1E6" />
    <path
        d="M13.86 20.47C13.86 21.41 13.1 22.17 12.15 22.17C11.2 22.17 10.45 21.41 10.45 20.47C10.45 19.53 11.21 18.76 12.15 18.76C13.09 18.76 13.86 19.52 13.86 20.47Z"
        fill="#B4DEE0" />
    <path
        d="M7.41 20.47C7.41 21.41 6.65001 22.17 5.71001 22.17C4.77001 22.17 4.00999 21.41 4.00999 20.47C4.00999 19.53 4.77001 18.76 5.71001 18.76C6.65001 18.76 7.41 19.52 7.41 20.47Z"
        fill="#B4DEE0" />
    <path
        d="M20.31 20.47C20.31 21.41 19.55 22.17 18.6 22.17C17.65 22.17 16.9 21.41 16.9 20.47C16.9 19.53 17.66 18.76 18.6 18.76C19.54 18.76 20.31 19.52 20.31 20.47Z"
        fill="#B4DEE0" />
    <path
        d="M26.76 20.47C26.76 21.41 26 22.17 25.05 22.17C24.1 22.17 23.35 21.41 23.35 20.47C23.35 19.53 24.11 18.76 25.05 18.76C25.99 18.76 26.76 19.52 26.76 20.47Z"
        fill="#B4DEE0" />
    <path
        d="M10.45 24.73C10.45 25.67 9.69 26.43 8.75 26.43C7.81 26.43 7.05 25.67 7.05 24.73C7.05 23.79 7.81 23.03 8.75 23.03C9.69 23.03 10.45 23.79 10.45 24.73Z"
        fill="#B4DEE0" />
    <path
        d="M16.9 24.73C16.9 25.67 16.14 26.43 15.19 26.43C14.24 26.43 13.49 25.67 13.49 24.73C13.49 23.79 14.25 23.03 15.19 23.03C16.13 23.03 16.9 23.79 16.9 24.73Z"
        fill="#B4DEE0" />
    <path
        d="M23.35 24.73C23.35 25.67 22.59 26.43 21.64 26.43C20.69 26.43 19.94 25.67 19.94 24.73C19.94 23.79 20.7 23.03 21.64 23.03C22.58 23.03 23.35 23.79 23.35 24.73Z"
        fill="#B4DEE0" />
</svg>
    