<svg width="40" height="20" viewBox="0 0 40 20" fill="none" xmlns="http://www.w3.org/2000/svg">
    <path
        d="M29.51 12.48H6.82999C6.15999 12.48 5.60999 11.93 5.60999 11.26C5.60999 10.59 6.15999 10.04 6.82999 10.04H29.51C30.18 10.04 30.73 10.58 30.73 11.26C30.73 11.94 30.18 12.48 29.51 12.48Z"
        fill="#B2D8F7" />
    <path
        d="M24.11 16.19H1.42999C0.759993 16.19 0.209991 15.64 0.209991 14.97C0.209991 14.3 0.759993 13.75 1.42999 13.75H24.11C24.78 13.75 25.33 14.29 25.33 14.97C25.33 15.65 24.79 16.19 24.11 16.19Z"
        fill="#B2D8F7" />
    <path
        d="M21.37 19.75H6.82999C6.15999 19.75 5.60999 19.2 5.60999 18.53C5.60999 17.86 6.15999 17.31 6.82999 17.31H21.37C22.04 17.31 22.59 17.85 22.59 18.53C22.59 19.21 22.04 19.75 21.37 19.75Z"
        fill="#B2D8F7" />
    <path
        d="M35.52 7.35001C35.5 3.30001 32.65 0.019989 27.94 0.019989C24.66 0.019989 22.42 1.39999 20.92 3.04999C20.28 2.74999 19.55 2.57999 18.78 2.57999C16.14 2.57999 14 4.58 14 7.03C14 7.1 14 7.16999 14 7.23999C12.51 7.28999 11.03 7.79999 10.11 9.04999H29.5C30.72 9.04999 31.72 10.05 31.72 11.27C31.72 12.49 30.72 13.49 29.5 13.49H25.74C26.1 13.88 26.33 14.4 26.33 14.98C26.33 15.43 26.19 15.86 25.96 16.21H34.6C37.67 16.21 39.27 14.2 39.27 11.72C39.27 9.6 38.19 7.88999 35.53 7.35999L35.52 7.35001Z"
        fill="#D3E1E6" />
</svg>
    