<svg width="32" height="11" viewBox="0 0 32 11" fill="none" xmlns="http://www.w3.org/2000/svg">
    <path
        d="M29.89 3.01001H7.22C6.55 3.01001 6 2.46001 6 1.79001C6 1.12001 6.54 0.570007 7.22 0.570007H29.89C30.56 0.570007 31.11 1.12001 31.11 1.79001C31.11 2.46001 30.57 3.01001 29.89 3.01001Z"
        fill="#B2D8F7" />
    <path
        d="M24.5 6.72H1.82001C1.15001 6.72 0.600006 6.17 0.600006 5.5C0.600006 4.83 1.15001 4.28 1.82001 4.28H24.5C25.17 4.28 25.72 4.83 25.72 5.5C25.72 6.17 25.18 6.72 24.5 6.72Z"
        fill="#B2D8F7" />
    <path
        d="M21.76 10.28H7.22C6.55 10.28 6 9.73 6 9.06C6 8.39 6.54 7.84 7.22 7.84H21.76C22.43 7.84 22.98 8.39 22.98 9.06C22.98 9.73 22.43 10.28 21.76 10.28Z"
        fill="#B2D8F7" />
</svg>