<svg width="42" height="27" viewBox="0 0 42 27" fill="none" xmlns="http://www.w3.org/2000/svg">
    <path
        d="M40.57 16.88H38.16C37.49 16.88 36.94 16.33 36.94 15.66C36.94 14.99 37.49 14.44 38.16 14.44H40.57C41.25 14.44 41.79 14.99 41.79 15.66C41.79 16.33 41.24 16.88 40.57 16.88Z"
        fill="#F6921E" />
    <path
        d="M26.77 5.49001C27.45 5.49001 27.99 4.94 27.99 4.27V1.86C27.99 1.18 27.44 0.639999 26.77 0.639999C26.1 0.639999 25.55 1.19 25.55 1.86V4.27C25.55 4.95 26.1 5.49001 26.77 5.49001Z"
        fill="#F6921E" />
    <path
        d="M36.53 26.64C36.84 26.64 37.15 26.52 37.39 26.28C37.87 25.8 37.87 25.03 37.39 24.55L35.69 22.85C35.21 22.37 34.44 22.37 33.96 22.85C33.48 23.33 33.48 24.1 33.96 24.58L35.67 26.28C35.91 26.52 36.22 26.64 36.54 26.64H36.53Z"
        fill="#F6921E" />
    <path
        d="M18.72 8.82999C19.03 8.82999 19.34 8.71 19.59 8.47C20.07 7.99 20.07 7.22 19.59 6.74L17.88 5.03999C17.4 4.55999 16.63 4.55999 16.15 5.03999C15.67 5.51999 15.67 6.29 16.15 6.77L17.85 8.47C18.09 8.71 18.4 8.82999 18.72 8.82999Z"
        fill="#F6921E" />
    <path
        d="M26.77 7.3C24.64 7.3 22.71 8.13999 21.27 9.48999C24.92 10.26 27.42 13.04 27.74 16.84C30.11 17.58 31.46 19.36 31.52 21.84C33.52 20.37 34.82 18.02 34.82 15.35C34.82 10.9 31.21 7.28999 26.77 7.28999V7.3Z"
        fill="#F6921E" />
    <path
        d="M34.82 8.82999C35.14 8.82999 35.45 8.71 35.69 8.47L37.39 6.77C37.87 6.29 37.87 5.51999 37.39 5.03999C36.91 4.55999 36.14 4.55999 35.66 5.03999L33.95 6.74C33.47 7.22 33.47 7.99 33.95 8.47C34.19 8.71 34.5 8.82999 34.82 8.82999Z"
        fill="#F6921E" />
    <path
        d="M26.78 17.63C26.76 13.56 23.89 10.27 19.17 10.27C15.88 10.27 13.63 11.66 12.13 13.31C11.48 13.01 10.75 12.83 9.98 12.83C7.33 12.83 5.17999 14.83 5.17999 17.3C5.17999 17.37 5.17999 17.44 5.17999 17.51C2.77999 17.59 0.380005 18.85 0.380005 22.53C0.380005 24.89 2.25 26.52 5.12 26.52H25.85C28.93 26.52 30.53 24.5 30.53 22.01C30.53 19.88 29.44 18.17 26.77 17.63H26.78Z"
        fill="#D3E1E6" />
</svg>