<svg width="31" height="24" viewBox="0 0 31 24" fill="none" xmlns="http://www.w3.org/2000/svg">
    <path
        d="M19.44 0.339996C16.15 0.339996 13.92 1.72 12.42 3.37C11.78 3.07 11.05 2.89999 10.28 2.89999C7.64 2.89999 5.5 4.89999 5.5 7.35999C5.5 7.42999 5.5 7.50001 5.5 7.57001C3.11 7.65001 0.709991 8.91001 0.709991 12.57C0.709991 14.92 2.56999 16.54 5.42999 16.54H26.08C29.15 16.54 30.75 14.53 30.75 12.05C30.75 9.92999 29.67 8.22 27.01 7.69C26.99 3.63 24.14 0.359985 19.43 0.359985L19.44 0.339996Z"
        fill="#D3E1E6" />
    <path
        d="M8.31001 23.05C8.15001 23.05 7.99001 23.02 7.84001 22.95C7.22001 22.69 6.93001 21.97 7.19001 21.35L8.32002 18.68C8.58002 18.06 9.30002 17.77 9.92002 18.03C10.54 18.29 10.83 19.01 10.57 19.63L9.44001 22.3C9.24001 22.77 8.79002 23.05 8.32002 23.05H8.31001Z"
        fill="#00ADEE" />
    <path
        d="M14.75 23.05C14.59 23.05 14.43 23.02 14.28 22.95C13.66 22.69 13.37 21.97 13.63 21.35L14.76 18.68C15.02 18.06 15.74 17.77 16.36 18.03C16.98 18.29 17.27 19.01 17.01 19.63L15.88 22.3C15.68 22.77 15.23 23.05 14.76 23.05H14.75Z"
        fill="#00ADEE" />
    <path
        d="M21.2 23.05C21.04 23.05 20.88 23.02 20.73 22.95C20.11 22.69 19.82 21.97 20.08 21.35L21.21 18.68C21.47 18.06 22.19 17.77 22.81 18.03C23.43 18.29 23.72 19.01 23.46 19.63L22.33 22.3C22.13 22.77 21.68 23.05 21.21 23.05H21.2Z"
        fill="#00ADEE" />
</svg>
    