<svg width="31" height="24" viewBox="0 0 31 24" fill="none" xmlns="http://www.w3.org/2000/svg">
    <path
        d="M15.29 16.9C15.29 18.44 14.04 19.69 12.5 19.69C10.96 19.69 9.70999 18.44 9.70999 16.9C9.70999 14.38 12.5 12.19 12.5 12.19C12.5 12.19 15.29 14.39 15.29 16.9Z"
        fill="#1B75BB" />
    <path
        d="M21.47 20.24C21.47 21.78 20.22 23.03 18.68 23.03C17.14 23.03 15.89 21.78 15.89 20.24C15.89 17.72 18.68 15.53 18.68 15.53C18.68 15.53 21.47 17.73 21.47 20.24Z"
        fill="#1B75BB" />
    <path
        d="M27.18 7.70999C27.16 3.65999 24.3 0.380005 19.6 0.380005C16.31 0.380005 14.08 1.75999 12.58 3.39999C11.94 3.09999 11.21 2.92999 10.44 2.92999C7.8 2.92999 5.66 4.92001 5.66 7.39001C5.66 7.46001 5.66 7.53001 5.66 7.60001C3.27 7.68001 0.869995 8.94001 0.869995 12.6C0.869995 14.95 2.73 16.57 5.59 16.57H8.72C8.93 13.76 11.74 11.51 11.87 11.41L12.49 10.92L13.11 11.41C13.23 11.51 16.04 13.76 16.26 16.57H16.32C17.13 15.49 18 14.8 18.07 14.74L18.69 14.25L19.31 14.74C19.38 14.79 20.25 15.49 21.05 16.57H26.26C29.33 16.57 30.93 14.56 30.93 12.08C30.93 9.95999 29.85 8.25 27.19 7.72L27.18 7.70999Z"
        fill="#D3E1E6" />
</svg>
    