<svg width="31" height="29" viewBox="0 0 31 29" fill="none" xmlns="http://www.w3.org/2000/svg">
    <path
        d="M18.72 0.309998C15.44 0.309998 13.2 1.69 11.7 3.34C11.06 3.04 10.33 2.87 9.56001 2.87C6.92001 2.87 4.78001 4.86999 4.78001 7.32999C4.78001 7.39999 4.78001 7.47001 4.78001 7.54001C2.39001 7.62001 -0.00999451 8.88001 -0.00999451 12.54C-0.00999451 14.89 1.85001 16.51 4.71001 16.51H25.36C28.43 16.51 30.03 14.5 30.03 12.02C30.03 9.89999 28.94 8.19 26.29 7.66C26.27 3.61 23.42 0.329987 18.71 0.329987L18.72 0.309998Z"
        fill="#D3E1E6" />
    <path
        d="M7.58 23.02C7.42 23.02 7.26 22.99 7.11 22.92C6.49 22.66 6.2 21.95 6.46 21.32L7.59 18.65C7.85 18.03 8.57 17.74 9.19 18C9.81 18.26 10.1 18.98 9.84 19.6L8.71 22.27C8.51 22.73 8.06 23.02 7.59 23.02H7.58Z"
        fill="#00ADEE" />
    <path
        d="M14.03 23.02C13.87 23.02 13.71 22.99 13.56 22.92C12.94 22.66 12.65 21.95 12.91 21.32L14.04 18.65C14.3 18.03 15.02 17.74 15.64 18C16.26 18.26 16.55 18.98 16.29 19.6L15.16 22.27C14.96 22.73 14.51 23.02 14.04 23.02H14.03Z"
        fill="#00ADEE" />
    <path
        d="M20.48 23.02C20.32 23.02 20.16 22.99 20.01 22.92C19.39 22.66 19.1 21.95 19.36 21.32L20.49 18.65C20.75 18.03 21.47 17.74 22.09 18C22.71 18.26 23 18.98 22.74 19.6L21.61 22.27C21.41 22.73 20.96 23.02 20.49 23.02H20.48Z"
        fill="#00ADEE" />
    <path
        d="M9.29001 28.26C9.13001 28.26 8.97001 28.23 8.82001 28.16C8.20001 27.9 7.91001 27.18 8.17001 26.56L9.30001 23.89C9.56001 23.27 10.28 22.98 10.9 23.24C11.52 23.5 11.81 24.22 11.55 24.84L10.42 27.51C10.22 27.97 9.77001 28.25 9.30001 28.25L9.29001 28.26Z"
        fill="#00ADEE" />
    <path
        d="M15.74 28.26C15.58 28.26 15.42 28.23 15.27 28.16C14.65 27.9 14.36 27.18 14.62 26.56L15.75 23.89C16.01 23.27 16.73 22.98 17.35 23.24C17.97 23.5 18.26 24.22 18 24.84L16.87 27.51C16.67 27.97 16.22 28.25 15.75 28.25L15.74 28.26Z"
        fill="#00ADEE" />
</svg>
    