<svg width="31" height="25" viewBox="0 0 31 25" fill="none" xmlns="http://www.w3.org/2000/svg">
    <path
        d="M18.92 0.309998C15.64 0.309998 13.4 1.69 11.9 3.34C11.26 3.04 10.53 2.87 9.76001 2.87C7.12001 2.87 4.98001 4.86999 4.98001 7.32999C4.98001 7.39999 4.98001 7.47001 4.98001 7.54001C2.59001 7.62001 0.190002 8.88001 0.190002 12.54C0.190002 14.89 2.05 16.51 4.91 16.51H25.56C28.63 16.51 30.23 14.5 30.23 12.02C30.23 9.89999 29.15 8.19 26.49 7.66C26.47 3.61 23.61 0.329987 18.91 0.329987L18.92 0.309998Z"
        fill="#D3E1E6" />
    <path
        d="M17.4 22.49L16.52 21.95L17.24 21.72C17.34 21.69 17.39 21.59 17.36 21.49C17.33 21.39 17.22 21.34 17.13 21.37L16.11 21.7L15.15 21.12L16.11 20.54L17.13 20.87C17.13 20.87 17.17 20.87 17.19 20.87C17.27 20.87 17.34 20.82 17.37 20.74C17.4 20.64 17.35 20.54 17.25 20.51L16.53 20.28L17.41 19.74C17.5 19.69 17.53 19.57 17.47 19.49C17.42 19.4 17.3 19.37 17.22 19.43L16.34 19.97L16.47 19.23C16.49 19.13 16.42 19.03 16.32 19.02C16.22 19 16.12 19.07 16.11 19.17L15.93 20.23L14.99 20.8V19.7L15.8 19C15.88 18.93 15.89 18.82 15.82 18.74C15.75 18.66 15.64 18.66 15.56 18.72L14.99 19.21V18.18C14.99 18.08 14.91 18 14.8 18C14.69 18 14.61 18.08 14.61 18.18V19.21L14.04 18.72C13.96 18.65 13.85 18.66 13.78 18.74C13.71 18.82 13.72 18.93 13.8 19L14.61 19.7V20.8L13.67 20.23L13.49 19.17C13.47 19.07 13.38 19 13.28 19.02C13.18 19.04 13.11 19.13 13.13 19.23L13.26 19.97L12.38 19.43C12.29 19.38 12.18 19.4 12.13 19.49C12.08 19.58 12.11 19.69 12.19 19.74L13.07 20.28L12.35 20.51C12.25 20.54 12.2 20.65 12.23 20.74C12.26 20.82 12.33 20.87 12.41 20.87C12.43 20.87 12.45 20.87 12.47 20.87L13.49 20.54L14.45 21.12L13.49 21.7L12.47 21.37C12.37 21.34 12.27 21.39 12.24 21.49C12.21 21.59 12.26 21.69 12.36 21.72L13.08 21.95L12.2 22.49C12.11 22.54 12.08 22.66 12.14 22.74C12.18 22.8 12.24 22.83 12.3 22.83C12.34 22.83 12.37 22.83 12.4 22.8L13.28 22.27L13.15 23.01C13.13 23.11 13.2 23.21 13.3 23.22C13.3 23.22 13.32 23.22 13.33 23.22C13.42 23.22 13.5 23.16 13.51 23.07L13.69 22.01L14.63 21.44V22.54L13.82 23.24C13.74 23.31 13.73 23.42 13.8 23.5C13.84 23.54 13.89 23.56 13.94 23.56C13.98 23.56 14.03 23.55 14.06 23.52L14.63 23.02V24.05C14.63 24.15 14.71 24.24 14.82 24.24C14.93 24.24 15.01 24.16 15.01 24.05V23.02L15.58 23.51C15.58 23.51 15.66 23.55 15.7 23.55C15.75 23.55 15.81 23.53 15.84 23.49C15.91 23.41 15.9 23.29 15.82 23.23L15.01 22.53V21.43L15.95 22L16.13 23.06C16.15 23.15 16.23 23.21 16.31 23.21C16.31 23.21 16.33 23.21 16.34 23.21C16.44 23.19 16.51 23.1 16.49 23L16.36 22.26L17.24 22.79C17.24 22.79 17.3 22.82 17.34 22.82C17.4 22.82 17.46 22.79 17.5 22.73C17.55 22.64 17.52 22.53 17.44 22.48L17.4 22.49Z"
        fill="#B4DEE0" />
</svg>
    