<svg width="31" height="31" viewBox="0 0 31 31" fill="none" xmlns="http://www.w3.org/2000/svg">
    <path
        d="M18.76 0.309998C15.48 0.309998 13.24 1.69 11.74 3.34C11.1 3.04 10.37 2.87 9.60001 2.87C6.96001 2.87 4.82001 4.85999 4.82001 7.32999C4.82001 7.39999 4.82001 7.47001 4.82001 7.54001C2.43001 7.62001 0.0299988 8.88001 0.0299988 12.54C0.0299988 14.89 1.89 16.51 4.75 16.51H25.41C28.48 16.51 30.08 14.5 30.08 12.02C30.08 9.89999 28.99 8.19 26.34 7.66C26.32 3.6 23.46 0.329987 18.76 0.329987V0.309998Z"
        fill="#D3E1E6" />
    <path
        d="M12.55 22.49L11.67 21.95L12.39 21.72C12.49 21.69 12.54 21.59 12.51 21.49C12.48 21.39 12.38 21.34 12.28 21.37L11.26 21.7L10.3 21.12L11.26 20.54L12.28 20.87C12.28 20.87 12.32 20.87 12.34 20.87C12.42 20.87 12.49 20.82 12.51 20.74C12.54 20.64 12.49 20.54 12.39 20.51L11.67 20.28L12.55 19.74C12.64 19.69 12.66 19.57 12.61 19.49C12.56 19.4 12.44 19.37 12.36 19.43L11.48 19.97L11.6 19.23C11.62 19.13 11.55 19.03 11.45 19.02C11.35 19 11.25 19.07 11.24 19.17L11.06 20.23L10.12 20.8V19.7L10.93 19C11.01 18.93 11.02 18.82 10.95 18.74C10.88 18.66 10.77 18.66 10.69 18.72L10.12 19.21V18.18C10.12 18.08 10.04 17.99 9.92998 17.99C9.81998 17.99 9.74999 18.07 9.74999 18.18V19.21L9.17998 18.72C9.09998 18.65 8.99001 18.66 8.92001 18.74C8.85001 18.82 8.85999 18.93 8.93999 19L9.74999 19.7V20.8L8.80999 20.23L8.63 19.17C8.61 19.07 8.52001 19 8.42001 19.02C8.32001 19.04 8.24998 19.13 8.26998 19.23L8.39999 19.97L7.51998 19.43C7.42998 19.38 7.32 19.4 7.26 19.49C7.21 19.58 7.24 19.69 7.32 19.74L8.2 20.28L7.48 20.51C7.38 20.54 7.32998 20.65 7.35998 20.74C7.37998 20.82 7.46 20.87 7.54 20.87C7.56 20.87 7.57999 20.87 7.58999 20.87L8.60998 20.54L9.57 21.12L8.60998 21.7L7.58999 21.37C7.49999 21.34 7.38998 21.39 7.35998 21.49C7.32998 21.59 7.38 21.69 7.48 21.72L8.2 21.95L7.32 22.49C7.23 22.54 7.21 22.66 7.26 22.74C7.3 22.8 7.36001 22.83 7.42001 22.83C7.45001 22.83 7.47998 22.83 7.51998 22.8L8.39999 22.27L8.26998 23.01C8.24998 23.11 8.32001 23.21 8.42001 23.22C8.43001 23.22 8.44 23.22 8.45 23.22C8.54 23.22 8.62 23.16 8.63 23.07L8.80999 22.01L9.74999 21.44V22.54L8.93999 23.24C8.85999 23.31 8.85001 23.42 8.92001 23.5C8.96001 23.54 9.00999 23.56 9.05999 23.56C9.09999 23.56 9.14998 23.55 9.17998 23.52L9.74999 23.02V24.05C9.74999 24.15 9.82998 24.24 9.92998 24.24C10.03 24.24 10.12 24.16 10.12 24.05V23.02L10.69 23.51C10.69 23.51 10.77 23.55 10.81 23.55C10.86 23.55 10.91 23.53 10.95 23.49C11.02 23.41 11.01 23.3 10.93 23.23L10.12 22.53V21.43L11.06 22L11.24 23.06C11.25 23.15 11.33 23.21 11.42 23.21C11.43 23.21 11.44 23.21 11.45 23.21C11.55 23.19 11.62 23.1 11.6 23L11.47 22.26L12.35 22.79C12.35 22.79 12.41 22.82 12.44 22.82C12.5 22.82 12.56 22.79 12.6 22.73C12.65 22.64 12.63 22.53 12.54 22.48L12.55 22.49Z"
        fill="#B4DEE0" />
    <path
        d="M22.03 22.49L21.15 21.95L21.87 21.72C21.97 21.69 22.02 21.59 21.99 21.49C21.96 21.39 21.86 21.34 21.76 21.37L20.73 21.7L19.77 21.12L20.73 20.54L21.76 20.87C21.76 20.87 21.8 20.87 21.82 20.87C21.9 20.87 21.97 20.82 21.99 20.74C22.02 20.64 21.97 20.54 21.87 20.51L21.15 20.28L22.03 19.74C22.12 19.69 22.15 19.57 22.09 19.49C22.04 19.4 21.92 19.37 21.84 19.43L20.96 19.97L21.08 19.23C21.1 19.13 21.03 19.03 20.93 19.02C20.83 19 20.73 19.07 20.72 19.17L20.54 20.23L19.6 20.8V19.7L20.41 19C20.49 18.93 20.5 18.82 20.43 18.74C20.36 18.66 20.25 18.66 20.17 18.72L19.6 19.21V18.18C19.6 18.08 19.52 17.99 19.41 17.99C19.3 17.99 19.22 18.07 19.22 18.18V19.21L18.65 18.72C18.57 18.65 18.46 18.66 18.39 18.74C18.32 18.82 18.33 18.93 18.41 19L19.22 19.7V20.8L18.28 20.23L18.1 19.17C18.08 19.07 17.99 19 17.89 19.02C17.79 19.04 17.72 19.13 17.74 19.23L17.87 19.97L16.99 19.43C16.9 19.38 16.79 19.4 16.74 19.49C16.69 19.58 16.71 19.69 16.8 19.74L17.68 20.28L16.96 20.51C16.86 20.54 16.81 20.65 16.84 20.74C16.87 20.82 16.94 20.87 17.02 20.87C17.04 20.87 17.06 20.87 17.07 20.87L18.09 20.54L19.05 21.12L18.09 21.7L17.07 21.37C16.97 21.34 16.87 21.39 16.84 21.49C16.81 21.59 16.86 21.69 16.96 21.72L17.68 21.95L16.8 22.49C16.71 22.54 16.68 22.66 16.74 22.74C16.78 22.8 16.84 22.83 16.9 22.83C16.93 22.83 16.97 22.83 17 22.8L17.88 22.27L17.75 23.01C17.73 23.11 17.8 23.21 17.9 23.22C17.91 23.22 17.92 23.22 17.93 23.22C18.02 23.22 18.1 23.16 18.11 23.07L18.29 22.01L19.23 21.44V22.54L18.42 23.24C18.34 23.31 18.33 23.42 18.4 23.5C18.44 23.54 18.49 23.56 18.54 23.56C18.58 23.56 18.63 23.55 18.66 23.52L19.23 23.02V24.05C19.23 24.15 19.31 24.24 19.42 24.24C19.53 24.24 19.61 24.16 19.61 24.05V23.02L20.18 23.51C20.18 23.51 20.26 23.55 20.3 23.55C20.35 23.55 20.4 23.53 20.44 23.49C20.51 23.41 20.5 23.3 20.42 23.23L19.61 22.53V21.43L20.55 22L20.73 23.06C20.74 23.15 20.82 23.21 20.91 23.21C20.92 23.21 20.93 23.21 20.94 23.21C21.04 23.19 21.11 23.1 21.09 23L20.96 22.26L21.84 22.79C21.84 22.79 21.9 22.82 21.94 22.82C22 22.82 22.06 22.79 22.1 22.73C22.15 22.64 22.13 22.53 22.04 22.48L22.03 22.49Z"
        fill="#B4DEE0" />
    <path
        d="M16.81 28.75L15.93 28.21L16.65 27.98C16.75 27.95 16.8 27.84 16.77 27.75C16.74 27.65 16.63 27.6 16.54 27.63L15.52 27.96L14.56 27.38L15.52 26.8L16.54 27.13C16.54 27.13 16.58 27.13 16.6 27.13C16.68 27.13 16.75 27.08 16.78 27C16.81 26.9 16.76 26.8 16.66 26.77L15.94 26.54L16.82 26C16.91 25.95 16.94 25.83 16.88 25.75C16.83 25.66 16.71 25.63 16.63 25.69L15.75 26.23L15.88 25.49C15.9 25.39 15.83 25.29 15.73 25.28C15.63 25.26 15.53 25.33 15.52 25.43L15.34 26.49L14.4 27.06V25.96L15.21 25.26C15.29 25.19 15.29 25.08 15.23 25C15.16 24.92 15.05 24.91 14.97 24.98L14.4 25.47V24.44C14.4 24.34 14.32 24.26 14.21 24.26C14.1 24.26 14.02 24.34 14.02 24.44V25.47L13.45 24.98C13.37 24.91 13.26 24.92 13.19 25C13.12 25.08 13.13 25.19 13.21 25.26L14.02 25.96V27.06L13.08 26.49L12.9 25.43C12.88 25.33 12.79 25.26 12.69 25.28C12.59 25.3 12.52 25.39 12.54 25.49L12.67 26.23L11.79 25.69C11.7 25.64 11.59 25.66 11.54 25.75C11.49 25.84 11.52 25.95 11.6 26L12.48 26.54L11.76 26.77C11.66 26.8 11.61 26.91 11.64 27C11.67 27.08 11.74 27.13 11.82 27.13C11.84 27.13 11.86 27.13 11.88 27.13L12.9 26.8L13.86 27.38L12.9 27.96L11.88 27.63C11.78 27.6 11.68 27.65 11.65 27.75C11.62 27.85 11.67 27.95 11.77 27.98L12.49 28.21L11.61 28.75C11.52 28.8 11.49 28.92 11.55 29C11.59 29.06 11.65 29.09 11.71 29.09C11.74 29.09 11.77 29.09 11.81 29.06L12.69 28.53L12.56 29.27C12.54 29.37 12.61 29.47 12.71 29.48C12.71 29.48 12.73 29.48 12.74 29.48C12.83 29.48 12.91 29.42 12.92 29.33L13.1 28.27L14.04 27.7V28.8L13.23 29.5C13.15 29.57 13.14 29.68 13.21 29.76C13.25 29.8 13.3 29.82 13.35 29.82C13.39 29.82 13.44 29.81 13.47 29.78L14.04 29.28V30.31C14.04 30.41 14.12 30.49 14.23 30.49C14.34 30.49 14.42 30.41 14.42 30.31V29.28L14.99 29.78C14.99 29.78 15.07 29.82 15.11 29.82C15.16 29.82 15.22 29.8 15.25 29.76C15.32 29.68 15.31 29.56 15.23 29.5L14.42 28.8V27.7L15.36 28.27L15.54 29.33C15.56 29.42 15.63 29.48 15.72 29.48C15.72 29.48 15.74 29.48 15.75 29.48C15.85 29.46 15.92 29.37 15.9 29.27L15.77 28.53L16.65 29.06C16.65 29.06 16.71 29.09 16.75 29.09C16.81 29.09 16.87 29.06 16.91 29C16.96 28.91 16.93 28.8 16.85 28.75H16.81Z"
        fill="#B4DEE0" />
</svg>
    