<svg width="21" height="25" viewBox="0 0 21 25" fill="none" xmlns="http://www.w3.org/2000/svg">
    <path
        d="M19.87 17.08L17.29 15.52L19.21 14.9C19.73 14.73 20.01 14.17 19.84 13.65C19.67 13.13 19.11 12.85 18.6 13.01L15.06 14.16L12.19 12.42L15.06 10.68L18.6 11.83C18.7 11.86 18.81 11.88 18.9 11.88C19.32 11.88 19.7 11.61 19.84 11.2C20.01 10.68 19.72 10.12 19.21 9.95001L17.29 9.32999L19.87 7.76999C20.34 7.48999 20.49 6.88 20.2 6.41C19.92 5.94 19.31 5.78999 18.84 6.07999L16.26 7.64001L16.6 5.66C16.69 5.12 16.33 4.60999 15.79 4.51999C15.25 4.42999 14.74 4.78999 14.65 5.32999L14.03 9L11.26 10.67V7.42999L14.08 5C14.49 4.64 14.54 4.01999 14.18 3.60999C13.82 3.19999 13.2 3.15001 12.79 3.51001L11.27 4.82999V1.81C11.27 1.26 10.83 0.820007 10.28 0.820007C9.73 0.820007 9.29001 1.26 9.29001 1.81V4.82999L7.76001 3.51001C7.35001 3.15001 6.72 3.19999 6.37 3.60999C6.01 4.01999 6.06001 4.65 6.47001 5L9.29001 7.42999V10.67L6.51999 8.98999L5.9 5.32001C5.81 4.78001 5.30001 4.42001 4.76001 4.51001C4.22001 4.60001 3.86002 5.10999 3.95002 5.64999L4.29001 7.63L1.71001 6.07001C1.24001 5.79001 0.640011 5.93999 0.350011 6.39999C0.0700108 6.86999 0.219997 7.47001 0.679997 7.76001L3.26001 9.32001L1.35001 9.94C0.830011 10.11 0.550006 10.67 0.720006 11.19C0.850006 11.61 1.24001 11.87 1.66001 11.87C1.76001 11.87 1.86001 11.85 1.96001 11.82L5.5 10.67L8.37 12.41L5.5 14.15L1.96001 13C1.44001 12.83 0.880006 13.12 0.720006 13.64C0.550006 14.16 0.840011 14.72 1.35001 14.89L3.26001 15.51L0.679997 17.07C0.209997 17.35 0.0600109 17.96 0.350011 18.43C0.540011 18.74 0.860002 18.91 1.2 18.91C1.37 18.91 1.55001 18.86 1.71001 18.77L4.29001 17.21L3.95002 19.19C3.86002 19.73 4.22001 20.24 4.76001 20.33C4.82001 20.33 4.87 20.34 4.93 20.34C5.4 20.34 5.82 20 5.9 19.52L6.51999 15.85L9.29001 14.17V17.41L6.47001 19.84C6.06001 20.2 6.01 20.82 6.37 21.23C6.57 21.46 6.84 21.57 7.12 21.57C7.35 21.57 7.58001 21.49 7.76001 21.33L9.29001 20.01V23.03C9.29001 23.58 9.73 24.02 10.28 24.02C10.83 24.02 11.27 23.58 11.27 23.03V20.01L12.79 21.33C12.98 21.49 13.21 21.57 13.44 21.57C13.72 21.57 13.99 21.45 14.19 21.23C14.55 20.82 14.5 20.19 14.09 19.84L11.27 17.41V14.17L14.04 15.85L14.66 19.52C14.74 20 15.16 20.34 15.63 20.34C15.69 20.34 15.74 20.34 15.8 20.33C16.34 20.24 16.7 19.73 16.61 19.19L16.27 17.21L18.85 18.77C19.01 18.87 19.19 18.91 19.36 18.91C19.69 18.91 20.02 18.74 20.21 18.43C20.49 17.96 20.34 17.36 19.88 17.07L19.87 17.08Z"
        fill="#B4DEE0" />
</svg>