<svg width="31" height="26" viewBox="0 0 31 26" fill="none" xmlns="http://www.w3.org/2000/svg">
    <path
        d="M20.02 15.89C19.97 15.8 19.87 15.74 19.76 15.74H17.4L19.64 11.79C19.69 11.7 19.69 11.59 19.64 11.5C19.59 11.41 19.49 11.35 19.38 11.35H15.63C15.5 11.35 15.38 11.44 15.35 11.56L13.33 18.28C13.3 18.37 13.32 18.47 13.38 18.54C13.44 18.61 13.52 18.66 13.62 18.66H15.47L13.69 25C13.65 25.14 13.72 25.29 13.85 25.35C13.89 25.37 13.93 25.37 13.97 25.37C14.07 25.37 14.16 25.32 14.22 25.23L20.01 16.19C20.07 16.1 20.07 15.98 20.01 15.89H20.02Z"
        fill="#F05A28" />
    <path
        d="M27.2 7.64001C27.18 3.58001 24.32 0.309998 19.62 0.309998C16.33 0.309998 14.1 1.69 12.6 3.34C11.95 3.04 11.23 2.87 10.46 2.87C7.82 2.87 5.68 4.86999 5.68 7.32999C5.68 7.39999 5.68 7.47001 5.68 7.54001C3.29 7.62001 0.889999 8.88001 0.889999 12.54C0.889999 14.89 2.75 16.51 5.61 16.51H12.81L14.38 11.28C14.54 10.74 15.05 10.36 15.62 10.36H19.37C19.83 10.36 20.26 10.61 20.48 10.99C20.73 11.4 20.73 11.9 20.5 12.3L19.11 14.76H19.75C20.23 14.76 20.66 15.02 20.88 15.42C21.07 15.76 21.09 16.16 20.95 16.51H26.27C29.34 16.51 30.94 14.5 30.94 12.02C30.94 9.89999 29.86 8.19 27.2 7.66V7.64001Z"
        fill="#D3E1E6" />
</svg>
    