<svg width="31" height="26" viewBox="0 0 31 26" fill="none" xmlns="http://www.w3.org/2000/svg">
    <path
        d="M22.26 15.89C22.21 15.8 22.11 15.74 22 15.74H19.64L21.87 11.79C21.92 11.7 21.92 11.59 21.87 11.5C21.82 11.41 21.72 11.35 21.62 11.35H17.87C17.74 11.35 17.62 11.44 17.58 11.56L15.56 18.28C15.53 18.37 15.55 18.47 15.6 18.54C15.66 18.61 15.74 18.66 15.84 18.66H17.69L15.9 25C15.86 25.14 15.93 25.29 16.06 25.35C16.1 25.37 16.14 25.37 16.18 25.37C16.28 25.37 16.37 25.32 16.43 25.23L22.22 16.19C22.28 16.1 22.28 15.98 22.23 15.89H22.26Z"
        fill="#F05A28" />
    <path
        d="M14.98 13.1C14.94 13.03 14.86 12.98 14.78 12.98H12.96L14.68 9.92999C14.72 9.85999 14.72 9.77001 14.68 9.70001C14.64 9.63001 14.56 9.59 14.48 9.59H11.59C11.49 9.59 11.4 9.65 11.37 9.75L9.81 14.92C9.79 14.99 9.81 15.06 9.85 15.12C9.89 15.18 9.96 15.21 10.03 15.21H11.46L10.09 20.09C10.06 20.2 10.11 20.31 10.21 20.36C10.24 20.37 10.27 20.38 10.3 20.38C10.38 20.38 10.45 20.34 10.49 20.28L14.95 13.32C15 13.25 15 13.16 14.95 13.09L14.98 13.1Z"
        fill="#F05A28" />
    <path
        d="M26.98 7.64001C26.96 3.58001 24.1 0.309998 19.4 0.309998C16.12 0.309998 13.88 1.69 12.38 3.34C11.74 3.04 11.01 2.87 10.24 2.87C7.6 2.87 5.46 4.86999 5.46 7.32999C5.46 7.39999 5.46 7.47001 5.46 7.54001C3.07 7.62001 0.669998 8.88001 0.669998 12.54C0.669998 14.89 2.53 16.51 5.39 16.51H10.07L10.14 16.25H10.03C9.64 16.25 9.28 16.07 9.05 15.77C8.82 15.46 8.74 15.06 8.85 14.67L10.4 9.5C10.56 8.98 11.03 8.63 11.58 8.63H14.47C14.9 8.63 15.31 8.86 15.52 9.22C15.75 9.6 15.76 10.08 15.54 10.46L14.66 12.01H14.76C15.21 12.01 15.63 12.26 15.84 12.66C15.98 12.93 16.01 13.24 15.94 13.52L16.61 11.28C16.78 10.74 17.28 10.37 17.85 10.37H21.6C22.06 10.37 22.48 10.62 22.71 11C22.96 11.4 22.96 11.91 22.73 12.3L21.34 14.76H21.98C22.46 14.76 22.89 15.02 23.11 15.42C23.3 15.76 23.32 16.16 23.18 16.51H26.03C29.1 16.51 30.7 14.5 30.7 12.02C30.7 9.89999 29.62 8.19 26.96 7.66L26.98 7.64001Z"
        fill="#D3E1E6" />
</svg>
    