<svg xmlns="http://www.w3.org/2000/svg" viewBox="0 0 500 500"><g id="freepik--background-simple--inject-70"><path d="M190.32,377.89c-31.85-6.21-126.08-21.37-126.68-96.12-.64-77.9,54.48-98,129.51-98.65,70.06-.57,51.72-77.44,146.49-78.21,80.24-.65,137.49,119.9,39.85,219.15C320.2,384.32,226.31,384.9,190.32,377.89Z" style="fill:#5164F0"></path><path d="M190.32,377.89c-31.85-6.21-126.08-21.37-126.68-96.12-.64-77.9,54.48-98,129.51-98.65,70.06-.57,51.72-77.44,146.49-78.21,80.24-.65,137.49,119.9,39.85,219.15C320.2,384.32,226.31,384.9,190.32,377.89Z" style="fill:#fff;opacity:0.9"></path></g><g id="freepik--Shadow--inject-70"><ellipse id="freepik--path--inject-70" cx="245.18" cy="412.39" rx="193.89" ry="11.32" style="fill:#f5f5f5"></ellipse></g><g id="freepik--Sun--inject-70"><circle cx="134.78" cy="100.96" r="18.06" style="fill:#5164F0"></circle><circle cx="134.78" cy="100.96" r="18.06" style="fill:#fff;opacity:0.8"></circle></g><g id="freepik--Desert--inject-70"><path d="M406.18,382.43H47.45a6.71,6.71,0,0,1,.76-2.72s172.87-152.56,181.7-159.5l.4-.28a5.4,5.4,0,0,1,6.9.69Z" style="fill:#5164F0"></path><path d="M406.18,382.43H47.45a6.71,6.71,0,0,1,.76-2.72s172.87-152.56,181.7-159.5l.4-.28a5.4,5.4,0,0,1,6.9.69Z" style="fill:#fff;opacity:0.2"></path><path d="M242,263.33c-11.81,13.51-179.8,115.75-194.58,119.1l.76-2.72,182.1-159.78,1.75-.78c-2,3.6-3.81,11.8.3,16.57C238.08,242.36,253.84,249.82,242,263.33Z" style="opacity:0.2"></path><path d="M449.7,382.63l-366.91-.05s180.14-107,188.58-112l.31-.19,1.22-.7,1.13-.65a14.65,14.65,0,0,1,7.16-1.93,15,15,0,0,1,8.64,2.87C322.35,292.73,449.7,382.63,449.7,382.63Z" style="fill:#5164F0"></path><g style="opacity:0.1"><path d="M449.7,382.63l-366.91-.05s180.14-107,188.58-112l.31-.19,1.22-.7,1.13-.65a14.65,14.65,0,0,1,7.16-1.93,15,15,0,0,1,8.64,2.87C322.35,292.73,449.7,382.63,449.7,382.63Z" style="fill:#fff"></path></g><path d="M292.74,286.15c-.76,5.15-3.71,8.82-6.63,11.64s-6.12,5.44-8,9.87-1.76,11.42,1.25,14c1.87,1.58,4.25,1.07,6.14,2.59,3.06,2.44,3.44,9.36,1.66,13.89s-5,7.15-8.12,9.45a188.86,188.86,0,0,1-82.25,35c-28.08,0-114,0-114,0S271.68,270.41,271.68,270.41c.43-.25.83-.47,1.22-.71l1.14-.64c3.64-1,7.32-1.41,10.83.17C289.65,271.4,293.82,278.71,292.74,286.15Z" style="opacity:0.2"></path></g><g id="freepik--current-location--inject-70"><line x1="321.16" y1="226.71" x2="327.02" y2="226.71" style="fill:none;stroke:#5164F0;stroke-linecap:round;stroke-linejoin:round"></line><line x1="296.2" y1="226.71" x2="315.31" y2="226.71" style="fill:none;stroke:#5164F0;stroke-linecap:round;stroke-linejoin:round"></line><polygon points="365.73 222.42 261.01 222.42 263.55 193.5 368.26 193.5 365.73 222.42" style="fill:#5164F0"></polygon><polygon points="363.61 220.31 258.9 220.31 261.43 191.38 366.14 191.38 363.61 220.31 363.61 220.31" style="fill:#263238"></polygon><path d="M273.57,201.93a3.63,3.63,0,0,1,3.74-3.28,3,3,0,0,1,2.51,1.12l-1,.87a1.85,1.85,0,0,0-1.53-.74,2.16,2.16,0,0,0-2.21,2,1.76,1.76,0,0,0,1.85,2,2.22,2.22,0,0,0,1.67-.75l.86.87a3.57,3.57,0,0,1-2.72,1.13A3,3,0,0,1,273.57,201.93Z" style="fill:#fff"></path><path d="M285.45,200.22,285,205.1h-1.34l.05-.58a2.15,2.15,0,0,1-1.57.66c-1.22,0-2-.69-1.89-2.2l.24-2.76h1.41l-.22,2.55c-.07.82.26,1.18.89,1.18s1.16-.42,1.23-1.31l.22-2.42Z" style="fill:#fff"></path><path d="M289.79,200.15l-.11,1.31-.32,0A1.32,1.32,0,0,0,288,202.8l-.2,2.3h-1.42l.43-4.88h1.35l-.06.65A2.17,2.17,0,0,1,289.79,200.15Z" style="fill:#fff"></path><path d="M293.66,200.15l-.11,1.31-.32,0a1.32,1.32,0,0,0-1.41,1.36l-.2,2.3H290.2l.43-4.88H292l-.06.65A2.17,2.17,0,0,1,293.66,200.15Z" style="fill:#fff"></path><path d="M299,203.06h-3.69a1.18,1.18,0,0,0,1.31,1,1.78,1.78,0,0,0,1.27-.47l.68.82a2.8,2.8,0,0,1-2.08.79,2.29,2.29,0,0,1-2.56-2.52,2.75,2.75,0,0,1,2.82-2.51,2.19,2.19,0,0,1,2.32,2.53C299,202.79,299,202.94,299,203.06Zm-3.63-.82h2.4a1,1,0,0,0-1.11-1A1.28,1.28,0,0,0,295.32,202.24Z" style="fill:#fff"></path><path d="M305,202.31l-.24,2.79h-1.42l.23-2.57c.07-.79-.26-1.15-.89-1.15a1.25,1.25,0,0,0-1.28,1.31l-.21,2.41h-1.42l.43-4.88h1.35l0,.58a2.33,2.33,0,0,1,1.67-.65C304.29,200.15,305.1,200.82,305,202.31Z" style="fill:#fff"></path><path d="M309.17,204.87a2.14,2.14,0,0,1-1.18.31c-1.15,0-1.77-.59-1.67-1.75l.18-2h-.76l.1-1.09h.75l.11-1.18h1.41l-.1,1.18h1.21l-.09,1.09h-1.22l-.17,2a.51.51,0,0,0,.55.64,1,1,0,0,0,.59-.18Z" style="fill:#fff"></path><path d="M313.16,198.76h1.47l-.45,5.15h3.18l-.1,1.19h-4.65Z" style="fill:#fff"></path><path d="M317.79,202.66a2.79,2.79,0,0,1,2.91-2.51,2.26,2.26,0,0,1,2.45,2.51,2.78,2.78,0,0,1-2.89,2.52A2.28,2.28,0,0,1,317.79,202.66Zm3.93,0a1.12,1.12,0,0,0-1.12-1.35,1.37,1.37,0,0,0-1.37,1.35,1.11,1.11,0,0,0,1.13,1.35A1.36,1.36,0,0,0,321.72,202.66Z" style="fill:#fff"></path><path d="M323.73,202.66a2.8,2.8,0,0,1,2.94-2.51,2,2,0,0,1,2.07,1.24l-1.14.59a1.11,1.11,0,0,0-1-.67,1.39,1.39,0,0,0-1.4,1.35,1.13,1.13,0,0,0,1.16,1.35,1.34,1.34,0,0,0,1.16-.67l1,.6a2.5,2.5,0,0,1-2.29,1.24A2.28,2.28,0,0,1,323.73,202.66Z" style="fill:#fff"></path><path d="M333.79,202.32l-.24,2.78h-1.33l.06-.61a1.75,1.75,0,0,1-1.55.69c-1.14,0-1.77-.64-1.69-1.48s.73-1.46,2.22-1.46h1.12c.06-.61-.27-1-1-1a2.54,2.54,0,0,0-1.44.45l-.42-1a4,4,0,0,1,2.15-.59C333.12,200.15,333.92,200.84,333.79,202.32Zm-1.52,1.24,0-.5h-1c-.66,0-.89.25-.92.57s.25.59.75.59A1.14,1.14,0,0,0,332.27,203.56Z" style="fill:#fff"></path><path d="M338,204.87a2.14,2.14,0,0,1-1.18.31c-1.15,0-1.77-.59-1.67-1.75l.18-2h-.76l.1-1.09h.75l.11-1.18h1.41l-.1,1.18H338l-.09,1.09h-1.22l-.17,2a.51.51,0,0,0,.55.64,1,1,0,0,0,.59-.18Z" style="fill:#fff"></path><path d="M339.15,198.76a.88.88,0,0,1,.94-.79c.53,0,.86.32.82.76a.9.9,0,0,1-1,.81A.72.72,0,0,1,339.15,198.76Zm0,1.46h1.41l-.42,4.88h-1.42Z" style="fill:#fff"></path><path d="M341.34,202.66a2.78,2.78,0,0,1,2.9-2.51,2.26,2.26,0,0,1,2.46,2.51,2.78,2.78,0,0,1-2.89,2.52A2.27,2.27,0,0,1,341.34,202.66Zm3.93,0a1.12,1.12,0,0,0-1.13-1.35,1.38,1.38,0,0,0-1.37,1.35,1.12,1.12,0,0,0,1.14,1.35A1.37,1.37,0,0,0,345.27,202.66Z" style="fill:#fff"></path><path d="M352.66,202.31l-.25,2.79H351l.22-2.57c.07-.79-.26-1.15-.89-1.15a1.25,1.25,0,0,0-1.28,1.31l-.21,2.41h-1.42l.43-4.88h1.35l-.05.58a2.33,2.33,0,0,1,1.67-.65A1.74,1.74,0,0,1,352.66,202.31Z" style="fill:#fff"></path><path d="M291.72,209.9h2.1a2.08,2.08,0,0,1,2.34,2.3,2.55,2.55,0,0,1-2.75,2.31h-2.09Zm1.72,3.73a1.53,1.53,0,0,0,1.64-1.43,1.25,1.25,0,0,0-1.39-1.43h-1l-.25,2.86Z" style="fill:#5164F0"></path><path d="M300.27,213h-2.68a.85.85,0,0,0,1,.71,1.29,1.29,0,0,0,.92-.34l.5.59a2,2,0,0,1-1.51.57,1.67,1.67,0,0,1-1.87-1.82,2,2,0,0,1,2.05-1.83,1.59,1.59,0,0,1,1.69,1.84C300.31,212.83,300.29,212.94,300.27,213Zm-2.64-.6h1.75a.77.77,0,0,0-.81-.74A.93.93,0,0,0,297.63,212.43Z" style="fill:#5164F0"></path><path d="M300.54,214.18l.4-.74a2.23,2.23,0,0,0,1.21.34c.47,0,.66-.12.68-.32.05-.58-2.15,0-2-1.4.06-.67.7-1.15,1.74-1.15a2.67,2.67,0,0,1,1.33.31l-.4.73a1.9,1.9,0,0,0-1-.26c-.46,0-.67.14-.69.33-.05.6,2.14,0,2,1.41-.06.66-.71,1.13-1.77,1.13A2.83,2.83,0,0,1,300.54,214.18Z" style="fill:#5164F0"></path><path d="M307.93,213h-2.68a.85.85,0,0,0,.95.71,1.29,1.29,0,0,0,.92-.34l.5.59a2.07,2.07,0,0,1-1.52.57,1.66,1.66,0,0,1-1.86-1.82,2,2,0,0,1,2.05-1.83,1.59,1.59,0,0,1,1.69,1.84C308,212.83,308,212.94,307.93,213Zm-2.64-.6H307a.77.77,0,0,0-.81-.74A.93.93,0,0,0,305.29,212.43Z" style="fill:#5164F0"></path><path d="M311,210.91l-.08,1h-.23a1,1,0,0,0-1,1l-.14,1.67h-1l.31-3.55h1l0,.47A1.57,1.57,0,0,1,311,210.91Z" style="fill:#5164F0"></path><path d="M313.75,214.34a1.57,1.57,0,0,1-.86.22c-.83,0-1.28-.43-1.21-1.27l.13-1.46h-.55l.07-.79h.55l.07-.86h1l-.08.86h.89l-.07.79h-.89l-.12,1.45a.37.37,0,0,0,.4.46.73.73,0,0,0,.43-.13Z" style="fill:#5164F0"></path><path d="M315.46,213.92a1.47,1.47,0,0,1-.24.65l-.45,1h-.66l.39-1a.53.53,0,0,1-.31-.56.67.67,0,0,1,.69-.64A.55.55,0,0,1,315.46,213.92Z" style="fill:#5164F0"></path><path d="M318.18,212.48l.23-2.58h1.07l-.23,2.54c-.07.88.28,1.24.92,1.24s1.06-.36,1.14-1.24l.22-2.54h1.06l-.23,2.58a2.11,2.11,0,0,1-2.27,2.11A1.74,1.74,0,0,1,318.18,212.48Z" style="fill:#5164F0"></path><path d="M326.26,213.52h-2.14l-.49,1h-1.1L325,209.9h1.06l1.66,4.61h-1.12Zm-.26-.81-.58-1.77-.88,1.77Z" style="fill:#5164F0"></path><path d="M331.83,213.65l-.07.86h-3.57l.4-4.61h3.49l-.08.85h-2.42l-.09,1h2.14l-.07.83h-2.14l-.1,1.07Z" style="fill:#5164F0"></path><g style="opacity:0.30000000000000004"><path d="M291.72,209.9h2.1a2.08,2.08,0,0,1,2.34,2.3,2.55,2.55,0,0,1-2.75,2.31h-2.09Zm1.72,3.73a1.53,1.53,0,0,0,1.64-1.43,1.25,1.25,0,0,0-1.39-1.43h-1l-.25,2.86Z"></path><path d="M300.27,213h-2.68a.85.85,0,0,0,1,.71,1.29,1.29,0,0,0,.92-.34l.5.59a2,2,0,0,1-1.51.57,1.67,1.67,0,0,1-1.87-1.82,2,2,0,0,1,2.05-1.83,1.59,1.59,0,0,1,1.69,1.84C300.31,212.83,300.29,212.94,300.27,213Zm-2.64-.6h1.75a.77.77,0,0,0-.81-.74A.93.93,0,0,0,297.63,212.43Z"></path><path d="M300.54,214.18l.4-.74a2.23,2.23,0,0,0,1.21.34c.47,0,.66-.12.68-.32.05-.58-2.15,0-2-1.4.06-.67.7-1.15,1.74-1.15a2.67,2.67,0,0,1,1.33.31l-.4.73a1.9,1.9,0,0,0-1-.26c-.46,0-.67.14-.69.33-.05.6,2.14,0,2,1.41-.06.66-.71,1.13-1.77,1.13A2.83,2.83,0,0,1,300.54,214.18Z"></path><path d="M307.93,213h-2.68a.85.85,0,0,0,.95.71,1.29,1.29,0,0,0,.92-.34l.5.59a2.07,2.07,0,0,1-1.52.57,1.66,1.66,0,0,1-1.86-1.82,2,2,0,0,1,2.05-1.83,1.59,1.59,0,0,1,1.69,1.84C308,212.83,308,212.94,307.93,213Zm-2.64-.6H307a.77.77,0,0,0-.81-.74A.93.93,0,0,0,305.29,212.43Z"></path><path d="M311,210.91l-.08,1h-.23a1,1,0,0,0-1,1l-.14,1.67h-1l.31-3.55h1l0,.47A1.57,1.57,0,0,1,311,210.91Z"></path><path d="M313.75,214.34a1.57,1.57,0,0,1-.86.22c-.83,0-1.28-.43-1.21-1.27l.13-1.46h-.55l.07-.79h.55l.07-.86h1l-.08.86h.89l-.07.79h-.89l-.12,1.45a.37.37,0,0,0,.4.46.73.73,0,0,0,.43-.13Z"></path><path d="M315.46,213.92a1.47,1.47,0,0,1-.24.65l-.45,1h-.66l.39-1a.53.53,0,0,1-.31-.56.67.67,0,0,1,.69-.64A.55.55,0,0,1,315.46,213.92Z"></path><path d="M318.18,212.48l.23-2.58h1.07l-.23,2.54c-.07.88.28,1.24.92,1.24s1.06-.36,1.14-1.24l.22-2.54h1.06l-.23,2.58a2.11,2.11,0,0,1-2.27,2.11A1.74,1.74,0,0,1,318.18,212.48Z"></path><path d="M326.26,213.52h-2.14l-.49,1h-1.1L325,209.9h1.06l1.66,4.61h-1.12Zm-.26-.81-.58-1.77-.88,1.77Z"></path><path d="M331.83,213.65l-.07.86h-3.57l.4-4.61h3.49l-.08.85h-2.42l-.09,1h2.14l-.07.83h-2.14l-.1,1.07Z"></path></g><path d="M323.53,185.59a10.28,10.28,0,0,1-10,9.24,8.34,8.34,0,0,1-8.44-9.24,10.29,10.29,0,0,1,10.05-9.24A8.32,8.32,0,0,1,323.53,185.59Z" style="fill:#5164F0"></path><ellipse cx="314.27" cy="185.81" rx="5.99" ry="5.48" transform="translate(-41.25 268.88) rotate(-43.74)" style="fill:#fff"></ellipse><ellipse cx="314.27" cy="185.81" rx="2.55" ry="2.33" transform="translate(-41.24 268.9) rotate(-43.75)" style="fill:#5164F0"></ellipse><path d="M323.26,80c-16.81,0-31.64,13.63-33.11,30.44S315.38,170,315.38,170,349.57,127.22,351,110.4,340.08,80,323.26,80ZM319.59,125a13,13,0,0,1-13.15-14.41A16.05,16.05,0,0,1,322.11,96.2a13,13,0,0,1,13.16,14.42A16.05,16.05,0,0,1,319.59,125Z" style="fill:#5164F0"></path></g><g id="freepik--Plant--inject-70"><path d="M328.44,371.84c-2.67-12.68-12.87-20.37-23.26-28.1,6.32,10.84,13.76,20.77,17.09,32.87a58.64,58.64,0,0,0-17.1-16s9.6,18.64,13.27,22.25c-8-7.88-17-12.76-28.12-14.33,20.12,13.36,27.28,25.88,30,33.3a9.13,9.13,0,0,0,8.62,5.9l21.3-.15a9.19,9.19,0,0,0,8.51-6c3.72-10,10.21-18.66,19.85-23.6-8.1,2.26-14.92,3.91-19.79,10.77,3-10,8.18-15.83,17.76-20.06-8.9,1.44-17.68,4.74-21.31,13,1.06-10.1,5.2-17.45,13.24-23.65-7.62,1.15-14.94,6.58-16.4,14.15-.26-10.09.82-20.25,6.33-28.7a31.69,31.69,0,0,0-13.81,21.68c-2.37-8.69-3.55-21.4-13.67-32.77,5.73,17.1,3.57,30.69,3.57,30.69-.86-5.29-8.8-18.75-16.38-23.66C318.17,339.4,329.24,359.12,328.44,371.84Z" style="fill:#5164F0"></path><path d="M307.51,393.45a31,31,0,0,1,9.62,7.51,21.13,21.13,0,0,0-9.68.46L319.2,403a10.92,10.92,0,0,0-6.72,3.47,20.2,20.2,0,0,1,9.83-.45,13,13,0,0,0,3.59.49,3.08,3.08,0,0,0,2.81-1.95,3.76,3.76,0,0,0-.64-2.86C324,394.72,314.85,393.65,307.51,393.45Z" style="fill:#5164F0"></path><path d="M367.55,394.87a35.34,35.34,0,0,1-9.75,6.36,26.65,26.65,0,0,1,11.2.69,22.93,22.93,0,0,1-10,1.65,16.3,16.3,0,0,1,6.06,2.69l-13.67,1.32a4.73,4.73,0,0,1,.35-4C354.34,399.15,362.92,396.21,367.55,394.87Z" style="fill:#5164F0"></path><g style="opacity:0.7000000000000001"><path d="M328.44,371.84c-2.67-12.68-12.87-20.37-23.26-28.1,6.32,10.84,13.76,20.77,17.09,32.87a58.64,58.64,0,0,0-17.1-16s9.6,18.64,13.27,22.25c-8-7.88-17-12.76-28.12-14.33,20.12,13.36,27.28,25.88,30,33.3a9.13,9.13,0,0,0,8.62,5.9l21.3-.15a9.19,9.19,0,0,0,8.51-6c3.72-10,10.21-18.66,19.85-23.6-8.1,2.26-14.92,3.91-19.79,10.77,3-10,8.18-15.83,17.76-20.06-8.9,1.44-17.68,4.74-21.31,13,1.06-10.1,5.2-17.45,13.24-23.65-7.62,1.15-14.94,6.58-16.4,14.15-.26-10.09.82-20.25,6.33-28.7a31.69,31.69,0,0,0-13.81,21.68c-2.37-8.69-3.55-21.4-13.67-32.77,5.73,17.1,3.57,30.69,3.57,30.69-.86-5.29-8.8-18.75-16.38-23.66C318.17,339.4,329.24,359.12,328.44,371.84Z" style="fill:#fff"></path><path d="M307.51,393.45a31,31,0,0,1,9.62,7.51,21.13,21.13,0,0,0-9.68.46L319.2,403a10.92,10.92,0,0,0-6.72,3.47,20.2,20.2,0,0,1,9.83-.45,13,13,0,0,0,3.59.49,3.08,3.08,0,0,0,2.81-1.95,3.76,3.76,0,0,0-.64-2.86C324,394.72,314.85,393.65,307.51,393.45Z" style="fill:#fff"></path><path d="M367.55,394.87a35.34,35.34,0,0,1-9.75,6.36,26.65,26.65,0,0,1,11.2.69,22.93,22.93,0,0,1-10,1.65,16.3,16.3,0,0,1,6.06,2.69l-13.67,1.32a4.73,4.73,0,0,1,.35-4C354.34,399.15,362.92,396.21,367.55,394.87Z" style="fill:#fff"></path></g></g></svg>